<svg width="920" height="760" viewBox="0 0 920 760" fill="none" xmlns="http://www.w3.org/2000/svg">
  <rect width="920" height="760" rx="42" fill="#F7EFE5"/>
  <circle cx="770" cy="118" r="92" fill="#F1C6B3"/>
  <circle cx="174" cy="130" r="54" fill="#D8E7DE"/>
  <rect x="78" y="124" width="360" height="470" rx="28" transform="rotate(-5 78 124)" fill="#FFF9F2" stroke="#172033" stroke-opacity="0.08" stroke-width="2"/>
  <rect x="476" y="148" width="290" height="370" rx="28" transform="rotate(6 476 148)" fill="#FFF9F2" stroke="#172033" stroke-opacity="0.08" stroke-width="2"/>
  <rect x="162" y="94" width="420" height="520" rx="28" fill="#FFFDF9" stroke="#172033" stroke-opacity="0.1" stroke-width="2"/>
  <rect x="198" y="136" width="348" height="212" rx="20" fill="#E8B39C"/>
  <path d="M198 220C252 178 286 164 327 164C370 164 417 186 468 231C498 258 523 276 546 286V328C546 339.046 537.046 348 526 348H218C206.954 348 198 339.046 198 328V220Z" fill="#D07F5A"/>
  <circle cx="292" cy="214" r="38" fill="#FFF3EA"/>
  <circle cx="452" cy="208" r="32" fill="#FFF3EA"/>
  <path d="M286 262C310 236 332 224 352 224C374 224 399 238 430 267" stroke="#FFF3EA" stroke-width="16" stroke-linecap="round"/>
  <rect x="198" y="372" width="162" height="18" rx="9" fill="#172033"/>
  <rect x="198" y="404" width="296" height="14" rx="7" fill="#172033" fill-opacity="0.18"/>
  <rect x="198" y="430" width="268" height="14" rx="7" fill="#172033" fill-opacity="0.18"/>
  <rect x="198" y="470" width="110" height="42" rx="21" fill="#172033"/>
  <rect x="324" y="470" width="146" height="42" rx="21" fill="#F3E5D8"/>
  <rect x="520" y="206" width="206" height="150" rx="18" fill="#D7E8DE"/>
  <path d="M520 293C563 248 595 226 617 226C652 226 681 250 726 306V338C726 347.941 717.941 356 708 356H538C528.059 356 520 347.941 520 338V293Z" fill="#38584D"/>
  <rect x="520" y="386" width="126" height="14" rx="7" fill="#172033"/>
  <rect x="520" y="412" width="194" height="12" rx="6" fill="#172033" fill-opacity="0.18"/>
  <rect x="520" y="436" width="174" height="12" rx="6" fill="#172033" fill-opacity="0.18"/>
  <rect x="562" y="550" width="244" height="116" rx="26" fill="#172033"/>
  <rect x="592" y="578" width="94" height="12" rx="6" fill="#FFF9F2"/>
  <rect x="592" y="602" width="164" height="10" rx="5" fill="#FFF9F2" fill-opacity="0.35"/>
  <rect x="592" y="622" width="138" height="10" rx="5" fill="#FFF9F2" fill-opacity="0.35"/>
  <rect x="592" y="646" width="112" height="28" rx="14" fill="#E27952"/>
  <path d="M672 100L690 126L719 130L698 150L703 179L672 165L641 179L646 150L625 130L654 126L672 100Z" fill="#172033"/>
  <path d="M102 652L114 670L135 673L120 687L124 708L102 697L80 708L84 687L69 673L90 670L102 652Z" fill="#E27952"/>
  <path d="M790 420L800 434L817 437L805 448L808 465L790 457L772 465L775 448L763 437L780 434L790 420Z" fill="#38584D"/>
</svg>
